<?xml version="1.0" standalone="no"?>
<!DOCTYPE svg PUBLIC "-//W3C//DTD SVG 20010904//EN"
 "http://www.w3.org/TR/2001/REC-SVG-20010904/DTD/svg10.dtd">
<svg version="1.0" xmlns="http://www.w3.org/2000/svg"
 width="300.000000pt" height="300.000000pt" viewBox="0 0 300.000000 300.000000"
 preserveAspectRatio="xMidYMid meet">
<metadata>
Created by potrace 1.11, written by Peter Selinger 2001-2013
</metadata>
<g transform="translate(0.000000,300.000000) scale(0.100000,-0.100000)"
fill="#000000" stroke="none">
<path d="M395 2987 c-83 -33 -134 -79 -177 -160 l-23 -42 0 -1105 0 -1105 23
-45 c32 -61 87 -116 147 -148 l50 -27 898 -3 c493 -1 897 1 897 5 0 7 -37 129
-67 227 -10 31 8 17 148 -115 74 -70 222 -204 329 -299 l195 -174 3 1385 c3
1561 9 1430 -77 1523 -25 27 -68 59 -96 72 l-50 24 -1085 -1 c-807 0 -1093 -4
-1115 -12z"/>
</g>
</svg>
